<?xml version="1.0" encoding="UTF-8" standalone="no"?>
<!DOCTYPE svg PUBLIC "-//W3C//DTD SVG 1.1//EN"
 "http://www.w3.org/Graphics/SVG/1.1/DTD/svg11.dtd">
<!-- Generated by graphviz version 2.38.0 (20140413.2041)
 -->
<!-- Title: G Pages: 1 -->
<svg width="513pt" height="901pt"
 viewBox="0.00 0.00 512.62 901.00" xmlns="http://www.w3.org/2000/svg" xmlns:xlink="http://www.w3.org/1999/xlink">
<g id="graph0" class="graph" transform="scale(1 1) rotate(0) translate(4 897)">
<title>G</title>
<polygon fill="white" stroke="none" points="-4,4 -4,-897 508.623,-897 508.623,4 -4,4"/>
<g id="clust1" class="cluster"><title>cluster_Global</title>
<path fill="none" stroke="gray" d="M83.0002,-152C83.0002,-152 484.623,-152 484.623,-152 490.623,-152 496.623,-158 496.623,-164 496.623,-164 496.623,-873 496.623,-873 496.623,-879 490.623,-885 484.623,-885 484.623,-885 83.0002,-885 83.0002,-885 77.0002,-885 71.0002,-879 71.0002,-873 71.0002,-873 71.0002,-164 71.0002,-164 71.0002,-158 77.0002,-152 83.0002,-152"/>
<text text-anchor="middle" x="283.812" y="-872.2" font-family="Times,serif" font-size="11.00" fill="gray">Global</text>
</g>
<g id="clust2" class="cluster"><title>cluster_\BestServedCold</title>
<path fill="none" stroke="gray" d="M91.0002,-160C91.0002,-160 476.623,-160 476.623,-160 482.623,-160 488.623,-166 488.623,-172 488.623,-172 488.623,-846 488.623,-846 488.623,-852 482.623,-858 476.623,-858 476.623,-858 91.0002,-858 91.0002,-858 85.0002,-858 79.0002,-852 79.0002,-846 79.0002,-846 79.0002,-172 79.0002,-172 79.0002,-166 85.0002,-160 91.0002,-160"/>
<text text-anchor="middle" x="283.812" y="-845.2" font-family="Times,serif" font-size="11.00" fill="gray">BestServedCold</text>
</g>
<g id="clust3" class="cluster"><title>cluster_\BestServedCold\LaravelZendSearch</title>
<path fill="none" stroke="gray" d="M99.0002,-168C99.0002,-168 468.623,-168 468.623,-168 474.623,-168 480.623,-174 480.623,-180 480.623,-180 480.623,-819 480.623,-819 480.623,-825 474.623,-831 468.623,-831 468.623,-831 99.0002,-831 99.0002,-831 93.0002,-831 87.0002,-825 87.0002,-819 87.0002,-819 87.0002,-180 87.0002,-180 87.0002,-174 93.0002,-168 99.0002,-168"/>
<text text-anchor="middle" x="283.812" y="-818.2" font-family="Times,serif" font-size="11.00" fill="gray">LaravelZendSearch</text>
</g>
<g id="clust4" class="cluster"><title>cluster_\BestServedCold\LaravelZendSearch\Laravel</title>
<path fill="none" stroke="gray" d="M353.607,-176C353.607,-176 460.623,-176 460.623,-176 466.623,-176 472.623,-182 472.623,-188 472.623,-188 472.623,-792 472.623,-792 472.623,-798 466.623,-804 460.623,-804 460.623,-804 353.607,-804 353.607,-804 347.607,-804 341.607,-798 341.607,-792 341.607,-792 341.607,-188 341.607,-188 341.607,-182 347.607,-176 353.607,-176"/>
<text text-anchor="middle" x="407.115" y="-791.2" font-family="Times,serif" font-size="11.00" fill="gray">Laravel</text>
</g>
<g id="clust5" class="cluster"><title>cluster_\BestServedCold\LaravelZendSearch\Laravel\Console</title>
<path fill="none" stroke="gray" d="M376.711,-392C376.711,-392 437.519,-392 437.519,-392 443.519,-392 449.519,-398 449.519,-404 449.519,-404 449.519,-559 449.519,-559 449.519,-565 443.519,-571 437.519,-571 437.519,-571 376.711,-571 376.711,-571 370.711,-571 364.711,-565 364.711,-559 364.711,-559 364.711,-404 364.711,-404 364.711,-398 370.711,-392 376.711,-392"/>
<text text-anchor="middle" x="407.115" y="-558.2" font-family="Times,serif" font-size="11.00" fill="gray">Console</text>
</g>
<g id="clust6" class="cluster"><title>cluster_\BestServedCold\LaravelZendSearch\Lucene</title>
<path fill="none" stroke="gray" d="M107,-436C107,-436 170.607,-436 170.607,-436 176.607,-436 182.607,-442 182.607,-448 182.607,-448 182.607,-792 182.607,-792 182.607,-798 176.607,-804 170.607,-804 170.607,-804 107,-804 107,-804 101,-804 95.0002,-798 95.0002,-792 95.0002,-792 95.0002,-448 95.0002,-448 95.0002,-442 101,-436 107,-436"/>
<text text-anchor="middle" x="138.803" y="-791.2" font-family="Times,serif" font-size="11.00" fill="gray">Lucene</text>
</g>
<g id="clust7" class="cluster"><title>cluster_\BestServedCold\LaravelZendSearch\Lucene\Store</title>
<path fill="none" stroke="gray" d="M115,-652C115,-652 162.607,-652 162.607,-652 168.607,-652 174.607,-658 174.607,-664 174.607,-664 174.607,-765 174.607,-765 174.607,-771 168.607,-777 162.607,-777 162.607,-777 115,-777 115,-777 109,-777 103,-771 103,-765 103,-765 103,-664 103,-664 103,-658 109,-652 115,-652"/>
<text text-anchor="middle" x="138.803" y="-764.2" font-family="Times,serif" font-size="11.00" fill="gray">Store</text>
</g>
<!-- \\BestServedCold\\LaravelZendSearch\\Laravel\\Console\\Destroy -->
<g id="node1" class="node"><title>\\BestServedCold\\LaravelZendSearch\\Laravel\\Console\\Destroy</title>
<polygon fill="none" stroke="black" points="438.323,-544 375.907,-544 375.907,-508 438.323,-508 438.323,-544"/>
<text text-anchor="middle" x="407.115" y="-522.7" font-family="Courier,monospace" font-size="11.00">Destroy</text>
</g>
<!-- \\Illuminate\\Console\\Command -->
<g id="node18" class="node"><title>\\Illuminate\\Console\\Command</title>
<ellipse fill="none" stroke="black" cx="138.803" cy="-126" rx="119.814" ry="18"/>
<text text-anchor="middle" x="138.803" y="-121.8" font-family="Times,serif" font-size="14.00" fill="gray">\Illuminate\Console\Command</text>
</g>
<!-- \\BestServedCold\\LaravelZendSearch\\Laravel\\Console\\Destroy&#45;&gt;\\Illuminate\\Console\\Command -->
<g id="edge1" class="edge"><title>\\BestServedCold\\LaravelZendSearch\\Laravel\\Console\\Destroy&#45;&gt;\\Illuminate\\Console\\Command</title>
<path fill="none" stroke="black" d="M375.783,-518.067C364.088,-513.864 351.238,-507.717 341.607,-499 230.493,-398.43 168.494,-221.974 147.753,-153.891"/>
<polygon fill="none" stroke="black" points="151.1,-152.867 144.884,-144.287 144.393,-154.871 151.1,-152.867"/>
</g>
<!-- \\BestServedCold\\LaravelZendSearch\\Laravel\\Console\\Optimise -->
<g id="node2" class="node"><title>\\BestServedCold\\LaravelZendSearch\\Laravel\\Console\\Optimise</title>
<polygon fill="none" stroke="black" points="441.424,-490 372.806,-490 372.806,-454 441.424,-454 441.424,-490"/>
<text text-anchor="middle" x="407.115" y="-468.7" font-family="Courier,monospace" font-size="11.00">Optimise</text>
</g>
<!-- \\BestServedCold\\LaravelZendSearch\\Laravel\\Console\\Optimise&#45;&gt;\\Illuminate\\Console\\Command -->
<g id="edge2" class="edge"><title>\\BestServedCold\\LaravelZendSearch\\Laravel\\Console\\Optimise&#45;&gt;\\Illuminate\\Console\\Command</title>
<path fill="none" stroke="black" d="M372.783,-462.488C362.042,-458.318 350.602,-452.601 341.607,-445 241.795,-360.661 175.038,-214.172 150.398,-153.518"/>
<polygon fill="none" stroke="black" points="153.64,-152.197 146.676,-144.211 147.14,-154.796 153.64,-152.197"/>
</g>
<!-- \\BestServedCold\\LaravelZendSearch\\Laravel\\Console\\Rebuild -->
<g id="node3" class="node"><title>\\BestServedCold\\LaravelZendSearch\\Laravel\\Console\\Rebuild</title>
<polygon fill="none" stroke="black" points="438.323,-436 375.907,-436 375.907,-400 438.323,-400 438.323,-436"/>
<text text-anchor="middle" x="407.115" y="-414.7" font-family="Courier,monospace" font-size="11.00">Rebuild</text>
</g>
<!-- \\BestServedCold\\LaravelZendSearch\\Laravel\\Console\\Rebuild&#45;&gt;\\Illuminate\\Console\\Command -->
<g id="edge3" class="edge"><title>\\BestServedCold\\LaravelZendSearch\\Laravel\\Console\\Rebuild&#45;&gt;\\Illuminate\\Console\\Command</title>
<path fill="none" stroke="black" d="M375.748,-411.695C364.312,-408.322 351.655,-403.308 341.607,-396 249.187,-328.784 180.342,-207.011 152.881,-153.023"/>
<polygon fill="none" stroke="black" points="155.996,-151.428 148.386,-144.058 149.739,-154.566 155.996,-151.428"/>
</g>
<!-- \\BestServedCold\\LaravelZendSearch\\Laravel\\Facade -->
<g id="node4" class="node"><title>\\BestServedCold\\LaravelZendSearch\\Laravel\\Facade</title>
<polygon fill="none" stroke="black" points="434.723,-382 379.507,-382 379.507,-346 434.723,-346 434.723,-382"/>
<text text-anchor="middle" x="407.115" y="-360.7" font-family="Courier,monospace" font-size="11.00">Facade</text>
</g>
<!-- \\Illuminate\\Support\\Facades\\Facade -->
<g id="node19" class="node"><title>\\Illuminate\\Support\\Facades\\Facade</title>
<ellipse fill="none" stroke="black" cx="138.803" cy="-72" rx="137.621" ry="18"/>
<text text-anchor="middle" x="138.803" y="-67.8" font-family="Times,serif" font-size="14.00" fill="gray">\Illuminate\Support\Facades\Facade</text>
</g>
<!-- \\BestServedCold\\LaravelZendSearch\\Laravel\\Facade&#45;&gt;\\Illuminate\\Support\\Facades\\Facade -->
<g id="edge4" class="edge"><title>\\BestServedCold\\LaravelZendSearch\\Laravel\\Facade&#45;&gt;\\Illuminate\\Support\\Facades\\Facade</title>
<path fill="none" stroke="black" d="M379.286,-358.619C366.218,-354.695 351.277,-348.058 341.607,-337 269.501,-254.546 357.694,-173.727 277.607,-99 272.577,-94.3067 266.982,-90.32 261.006,-86.9412"/>
<polygon fill="none" stroke="black" points="262.509,-83.7791 252.002,-82.4143 259.364,-90.0332 262.509,-83.7791"/>
</g>
<!-- \\BestServedCold\\LaravelZendSearch\\Laravel\\Index -->
<g id="node5" class="node"><title>\\BestServedCold\\LaravelZendSearch\\Laravel\\Index</title>
<polygon fill="none" stroke="black" points="434.115,-777 380.115,-777 380.115,-741 434.115,-741 434.115,-777"/>
<text text-anchor="middle" x="407.115" y="-755.7" font-family="Courier,monospace" font-size="11.00">Index</text>
</g>
<!-- \\BestServedCold\\LaravelZendSearch\\Lucene\\Index -->
<g id="node14" class="node"><title>\\BestServedCold\\LaravelZendSearch\\Lucene\\Index</title>
<polygon fill="none" stroke="black" points="165.803,-642 111.803,-642 111.803,-606 165.803,-606 165.803,-642"/>
<text text-anchor="middle" x="138.803" y="-620.7" font-family="Courier,monospace" font-size="11.00">Index</text>
</g>
<!-- \\BestServedCold\\LaravelZendSearch\\Laravel\\Index&#45;&gt;\\BestServedCold\\LaravelZendSearch\\Lucene\\Index -->
<g id="edge5" class="edge"><title>\\BestServedCold\\LaravelZendSearch\\Laravel\\Index&#45;&gt;\\BestServedCold\\LaravelZendSearch\\Lucene\\Index</title>
<path fill="none" stroke="black" d="M379.97,-751.559C367.532,-747.183 352.941,-740.762 341.607,-732 304.473,-703.296 317.716,-672.375 277.607,-648 246.833,-629.298 205.473,-624.21 176.117,-623.239"/>
<polygon fill="none" stroke="black" points="175.949,-619.735 165.886,-623.049 175.82,-626.734 175.949,-619.735"/>
</g>
<!-- \\BestServedCold\\LaravelZendSearch\\Laravel\\RebuildModels -->
<g id="node6" class="node"><title>\\BestServedCold\\LaravelZendSearch\\Laravel\\RebuildModels</title>
<polygon fill="none" stroke="black" points="457.929,-615 356.301,-615 356.301,-579 457.929,-579 457.929,-615"/>
<text text-anchor="middle" x="407.115" y="-593.7" font-family="Courier,monospace" font-size="11.00">RebuildModels</text>
</g>
<!-- \\BestServedCold\\LaravelZendSearch\\Laravel\\Search -->
<g id="node7" class="node"><title>\\BestServedCold\\LaravelZendSearch\\Laravel\\Search</title>
<polygon fill="none" stroke="black" points="434.723,-723 379.507,-723 379.507,-687 434.723,-687 434.723,-723"/>
<text text-anchor="middle" x="407.115" y="-701.7" font-family="Courier,monospace" font-size="11.00">Search</text>
</g>
<!-- \\BestServedCold\\LaravelZendSearch\\Lucene\\Search -->
<g id="node16" class="node"><title>\\BestServedCold\\LaravelZendSearch\\Lucene\\Search</title>
<polygon fill="none" stroke="black" points="166.411,-534 111.196,-534 111.196,-498 166.411,-498 166.411,-534"/>
<text text-anchor="middle" x="138.803" y="-512.7" font-family="Courier,monospace" font-size="11.00">Search</text>
</g>
<!-- \\BestServedCold\\LaravelZendSearch\\Laravel\\Search&#45;&gt;\\BestServedCold\\LaravelZendSearch\\Lucene\\Search -->
<g id="edge6" class="edge"><title>\\BestServedCold\\LaravelZendSearch\\Laravel\\Search&#45;&gt;\\BestServedCold\\LaravelZendSearch\\Lucene\\Search</title>
<path fill="none" stroke="black" d="M379.443,-698.65C366.73,-694.512 352.056,-687.977 341.607,-678 293.58,-632.147 330.031,-583.753 277.607,-543 248.854,-520.648 206.733,-515.189 176.637,-514.518"/>
<polygon fill="none" stroke="black" points="176.554,-511.018 166.534,-514.461 176.514,-518.018 176.554,-511.018"/>
</g>
<!-- \\BestServedCold\\LaravelZendSearch\\Laravel\\ServiceProvider -->
<g id="node8" class="node"><title>\\BestServedCold\\LaravelZendSearch\\Laravel\\ServiceProvider</title>
<polygon fill="none" stroke="black" points="464.631,-328 349.599,-328 349.599,-292 464.631,-292 464.631,-328"/>
<text text-anchor="middle" x="407.115" y="-306.7" font-family="Courier,monospace" font-size="11.00">ServiceProvider</text>
</g>
<!-- \\Illuminate\\Support\\ServiceProvider -->
<g id="node20" class="node"><title>\\Illuminate\\Support\\ServiceProvider</title>
<ellipse fill="none" stroke="black" cx="138.803" cy="-18" rx="138.607" ry="18"/>
<text text-anchor="middle" x="138.803" y="-13.8" font-family="Times,serif" font-size="14.00" fill="gray">\Illuminate\Support\ServiceProvider</text>
</g>
<!-- \\BestServedCold\\LaravelZendSearch\\Laravel\\ServiceProvider&#45;&gt;\\Illuminate\\Support\\ServiceProvider -->
<g id="edge7" class="edge"><title>\\BestServedCold\\LaravelZendSearch\\Laravel\\ServiceProvider&#45;&gt;\\Illuminate\\Support\\ServiceProvider</title>
<path fill="none" stroke="black" d="M351.752,-291.953C348.014,-289.349 344.564,-286.381 341.607,-283 269.501,-200.546 357.694,-119.727 277.607,-45 272.752,-40.4704 267.371,-36.599 261.63,-33.297"/>
<polygon fill="none" stroke="black" points="262.836,-29.9834 252.337,-28.5641 259.659,-36.2211 262.836,-29.9834"/>
</g>
<!-- \\BestServedCold\\LaravelZendSearch\\Laravel\\Store -->
<g id="node9" class="node"><title>\\BestServedCold\\LaravelZendSearch\\Laravel\\Store</title>
<polygon fill="none" stroke="black" points="434.115,-669 380.115,-669 380.115,-633 434.115,-633 434.115,-669"/>
<text text-anchor="middle" x="407.115" y="-647.7" font-family="Courier,monospace" font-size="11.00">Store</text>
</g>
<!-- \\BestServedCold\\LaravelZendSearch\\Lucene\\Store -->
<g id="node17" class="node"><title>\\BestServedCold\\LaravelZendSearch\\Lucene\\Store</title>
<polygon fill="none" stroke="black" points="165.803,-480 111.803,-480 111.803,-444 165.803,-444 165.803,-480"/>
<text text-anchor="middle" x="138.803" y="-458.7" font-family="Courier,monospace" font-size="11.00">Store</text>
</g>
<!-- \\BestServedCold\\LaravelZendSearch\\Laravel\\Store&#45;&gt;\\BestServedCold\\LaravelZendSearch\\Lucene\\Store -->
<g id="edge8" class="edge"><title>\\BestServedCold\\LaravelZendSearch\\Laravel\\Store&#45;&gt;\\BestServedCold\\LaravelZendSearch\\Lucene\\Store</title>
<path fill="none" stroke="black" d="M380.082,-644.857C367.225,-640.731 352.232,-634.144 341.607,-624 293.58,-578.147 330.031,-529.753 277.607,-489 248.682,-466.514 206.228,-461.124 176.097,-460.507"/>
<polygon fill="none" stroke="black" points="176.01,-457.006 165.996,-460.467 175.982,-464.006 176.01,-457.006"/>
</g>
<!-- \\BestServedCold\\LaravelZendSearch\\Laravel\\EloquentTrait -->
<g id="node10" class="node"><title>\\BestServedCold\\LaravelZendSearch\\Laravel\\EloquentTrait</title>
<polygon fill="none" stroke="black" points="457.929,-274 356.301,-274 356.301,-238 457.929,-238 457.929,-274"/>
<text text-anchor="middle" x="407.115" y="-252.7" font-family="Courier,monospace" font-size="11.00">EloquentTrait</text>
</g>
<!-- \\BestServedCold\\LaravelZendSearch\\Laravel\\SearchTrait -->
<g id="node11" class="node"><title>\\BestServedCold\\LaravelZendSearch\\Laravel\\SearchTrait</title>
<polygon fill="none" stroke="black" points="451.228,-220 363.002,-220 363.002,-184 451.228,-184 451.228,-220"/>
<text text-anchor="middle" x="407.115" y="-198.7" font-family="Courier,monospace" font-size="11.00">SearchTrait</text>
</g>
<!-- \\BestServedCold\\LaravelZendSearch\\Lucene\\Store\\Delete -->
<g id="node12" class="node"><title>\\BestServedCold\\LaravelZendSearch\\Lucene\\Store\\Delete</title>
<polygon fill="none" stroke="black" points="166.411,-750 111.196,-750 111.196,-714 166.411,-714 166.411,-750"/>
<text text-anchor="middle" x="138.803" y="-728.7" font-family="Courier,monospace" font-size="11.00">Delete</text>
</g>
<!-- \\BestServedCold\\LaravelZendSearch\\Lucene\\Store\\Insert -->
<g id="node13" class="node"><title>\\BestServedCold\\LaravelZendSearch\\Lucene\\Store\\Insert</title>
<polygon fill="none" stroke="black" points="166.411,-696 111.196,-696 111.196,-660 166.411,-660 166.411,-696"/>
<text text-anchor="middle" x="138.803" y="-674.7" font-family="Courier,monospace" font-size="11.00">Insert</text>
</g>
<!-- \\BestServedCold\\LaravelZendSearch\\Lucene\\Query -->
<g id="node15" class="node"><title>\\BestServedCold\\LaravelZendSearch\\Lucene\\Query</title>
<polygon fill="none" stroke="black" points="165.803,-588 111.803,-588 111.803,-552 165.803,-552 165.803,-588"/>
<text text-anchor="middle" x="138.803" y="-566.7" font-family="Courier,monospace" font-size="11.00">Query</text>
</g>
</g>
</svg>
